<?xml version="1.0" encoding="utf-8"?>
<!-- Generator: Adobe Illustrator 25.0.0, SVG Export Plug-In . SVG Version: 6.00 Build 0)  -->
<svg version="1.1" id="Layer_1" xmlns="http://www.w3.org/2000/svg" xmlns:xlink="http://www.w3.org/1999/xlink" x="0px" y="0px"
	 viewBox="0 0 1920 1080" style="enable-background:new 0 0 1920 1080;" xml:space="preserve">
<style type="text/css">
	.st0{fill:#FDFDFD;}
	.st1{fill:#64D5C3;}
	.st2{fill:#008476;}
	.st3{fill:#FEFEFE;}
	.st4{fill:#6FC1B5;}
	.st5{fill:#69CCBC;}
</style>
<g>
	<path class="st0" d="M1258.41,616.96c-9.93,35.91-25.4,69.7-47.88,99.74c-43.64,58.54-100.88,96.81-171.96,113.91
		c-34.93,8.39-70.18,9.04-105.6,4.4c-12.54,0.98-24.34-3.09-35.91-6.43C784.05,796,710.45,723.05,682.77,608.81
		c-21.98-91.27-2.77-176.36,55.61-250.69c45.19-57.56,104.63-94.28,176.6-107.15c91.35-16.28,174.32,4.23,246.3,64.32
		c53.9,44.94,85.98,102.92,100.96,170.9c0.65,3.09,0.08,6.43,0.08,9.69c3.42,4.97,3.66,11.15,3.91,16.53
		C1267.61,547.5,1267.94,582.76,1258.41,616.96z"/>
	<path class="st1" d="M1262.32,495.88c-3.01,0.81-4.72-1.3-6.76-2.85c-43.23-32.89-87.45-64.48-131.09-96.89
		c-3.5-2.61-7.25-4.72-11.48-5.62c-0.41-0.08-0.81-0.16-1.3-0.24c-0.41-0.08-0.81-0.16-1.3-0.16c-10.99-1.38-22.07-0.33-33.14-0.73
		c-7.49-0.24-8.88,3.5-7.17,9.93c1.14,4.56,3.58,8.31,6.11,12.13c3.58,5.46,4.56,11.4,2.61,17.67
		c-3.01,9.93-12.46,16.04-21.58,14.25c-9.53-1.87-17.02-12.7-15.14-22.88c1.22-6.43,2.61-12.62,1.47-19.22
		c-1.79-10.02-3.01-11.64-13.11-11.81c-17.51-0.16-35.09,0-52.68-0.08c-22.06,0-44.21,0-66.28,0.08c-15.39,0-21.33,8.96-15.47,23.61
		c3.34,8.39,3.42,15.8-3.42,22.39c-7.41,7.08-17.1,8.22-24.91,2.85c-7.65-5.21-10.02-14.82-5.62-24.43
		c2.77-5.86,6.11-11.4,7.82-17.75c1.3-4.72-0.16-6.76-4.97-6.68c-7.82,0-15.63,0.33-23.45-0.16c-8.39-0.41-12.05,3.09-13.52,11.48
		c-6.35,34.85-11.4,69.94-16.94,104.95c-4.15,26.3-8.06,52.68-12.29,78.98c-1.71,10.67-0.9,11.72,9.28,11.72
		c40.63,0.16,81.26,0,121.89,0.16c6.92,0,10.18-2.28,10.02-9.53c-0.24-11.4-0.16-22.8,0-34.2c0.08-5.78-2.04-8.71-8.22-9.69
		c-7.82-1.22-9.2-3.99-4.8-10.5c13.19-19.3,26.95-38.27,40.95-56.99c4.23-5.7,8.71-4.8,12.62,0.49
		c13.11,17.83,25.89,35.83,38.35,54.14c1.79,2.61,2.85,5.21,1.95,7.41c-0.08,0.41-0.33,0.73-0.57,1.14
		c-0.81,1.06-2.28,1.95-4.48,2.69c-8.39,2.52-4.89,10.26-6.76,15.63c-2.36,14.09-0.57,28.25-1.06,42.34
		c0.65,18.16-1.63,36.39,1.3,54.47c0.49,12.7-1.3,14.57-15.31,14.66c-55.85,0.08-111.71,0.16-167.65-0.08
		c-10.75,0-21.33,2.04-32,2.28c-3.01,0.16-6.6,0.73-7.17,3.99c-2.36,13.92-7.25,28.01,1.47,41.52c0.41,1.06,0.98,1.95,1.55,2.85
		c0.24,0.41,0.49,0.81,0.81,1.14c2.28,3.18,5.29,5.7,8.47,8.06c41.69,31.92,83.86,63.26,125.55,95.26
		c3.58,2.77,10.1,4.23,8.06,11.32c-12.54,0.98-24.34-3.09-35.91-6.43C784.05,796,710.45,723.05,682.77,608.81
		c-21.98-91.27-2.77-176.36,55.61-250.69c45.19-57.56,104.63-94.28,176.6-107.15c91.35-16.28,174.32,4.23,246.3,64.32
		c53.9,44.94,85.98,102.92,100.96,170.9C1262.89,489.29,1262.32,492.63,1262.32,495.88z"/>
	<path class="st2" d="M1258.41,616.96c-9.93,35.91-25.4,69.7-47.88,99.74c-43.64,58.54-100.88,96.81-171.96,113.91
		c-34.93,8.39-70.18,9.04-105.6,4.4c-2.93-8.71-11.64-11.4-17.91-16.28c-40.95-31.51-82.4-62.37-123.76-93.39
		c-1.63-1.3-2.61-2.77-2.85-4.89c0.57-0.49,1.06-0.9,1.63-1.22c4.64-3.01,10.1-1.87,15.14-1.87c109.51-0.08,219.02-0.08,328.53-0.08
		c23.61,0,25.24-1.95,21.82-25.4c-12.7-86.47-25.48-172.94-39-259.32c-1.79-11.48-5.7-22.72-5.46-34.52
		c0.08-2.61-0.65-5.37,0.57-7.74c0.24-0.57,0.57-1.06,1.06-1.55c9.61-0.65,14.9,7.08,21.41,11.72
		c39.33,28.33,78.16,57.32,117.16,86.22c3.83,2.85,7.33,6.11,10.99,9.2c3.42,4.97,3.66,11.15,3.91,16.53
		C1267.61,547.5,1267.94,582.76,1258.41,616.96z"/>
	<path class="st3" d="M1112.74,388.73c4.55,37.94,12.52,75.34,17.45,113.24c4.78,36.76,11.47,73.28,17.09,109.93
		c4.71,30.7,9.14,61.43,13.6,92.17c1.42,9.75-5.14,16.17-16.32,16.17c-115.44,0.01-230.89,0.01-346.33,0.03
		c-3.25,0-6.5,0.13-9.75,0.2c-12.34-8.86-6.67-32.93-6.67-32.93c1.61-13.94,9.44-20.26,22.5-20.17c0,0,47.93-1.36,71.88-1.6
		c39.91-0.4,79.83-0.44,119.73,0.11c9.76,0.13,12.93-2.85,10.79-12.03c-1.46-18.11-0.23-36.24-0.64-54.36
		c0.37-14.33-0.77-28.68,0.63-42.99c0.1-1.29,0.43-2.62,0.26-3.88c-1.35-9.64,0.88-16.13,14.75-13.53
		c-11.76-16.71-22.01-31.88-32.96-46.53c-4.93-6.6-8.09-17.77-15.35-18.29c-4.37-0.31-9.68,11.5-14.41,17.99
		c-10.27,14.07-20.45,28.21-30.59,42.37c-1.06,1.49-1.57,3.37-2.39,5.19c16.61,2.12,16.61,2.12,16.61,19.32
		c0,11.05-0.22,22.11,0.09,33.15c0.15,5.41-1.58,7.43-7.17,7.41c-44.53-0.17-89.06-0.2-133.59,0c-6.81,0.03-8.4-2.88-7.46-8.86
		c9.11-57.87,18.08-115.76,27.37-173.6c1.28-7.95,3.39-15.75,4.23-23.82c0.48-4.65,2.84-7.17,8.37-6.95
		c7.1,0.29,14.21,0.36,21.32,0.3c3.42-0.03,6.84-0.02,10.26-0.02c3.49,0,6.93,0.18,10.43,0.17c-1.32,0-1.7,2.18-1.95,3.13
		c-0.47,1.76-0.96,3.51-1.47,5.26c-0.93,3.16-1.92,6.3-3.01,9.4c-0.46,1.3-1.04,2.56-1.7,3.78c-0.36,0.67-0.76,1.33-1.18,1.96
		c-0.22,0.33-1.25,1.34-1.25,1.69c-5.94,7.21-4.9,17.83,0.99,23.06c6.16,5.47,15.45,5.53,22.36,0.13c3.7-2.89,6.62-6.13,6.13-11.14
		c-0.46-4.71-3.53-8.58-4.62-13.13c-0.94-3.9-0.49-8.05,0.69-11.85c0.8-2.59,1.89-5.07,2.95-7.56c0.66-1.56,1.12-4.64,3.24-4.81
		c2.88-0.23,5.77-0.38,8.66-0.39c3.59-0.01,7.19,0,10.78,0.02c7.19,0.04,14.39,0.12,21.58,0.15c1.51,0.01,3.02,0.01,4.53,0.01
		c14.42,0.02,28.84,0.04,43.26,0.02c14.42-0.02,28.84-0.08,43.26-0.21c1.3-0.01,2.6-0.02,3.89-0.04c2.53-0.03,5.02,0.25,7.56,0.24
		c0.24,0,0.49,0,0.68,0.14c0.13,0.1,0.21,0.24,0.29,0.38c0.58,1.07,1.17,2.14,1.75,3.22c0.4,0.73,0.8,1.46,1.08,2.24
		c2.72,7.44,3.43,16.93,1.25,24.61c-0.55,1.93-1.68,3.56-2.06,5.57c-0.52,2.74-0.07,5.46,1.03,7.99c3.46,8.01,13.4,13.39,21.7,9.17
		c3.85-1.96,7.05-5.82,8.99-9.62c2.65-5.22,2.46-10.99-0.97-15.78c-5.25-7.32-8.39-16.05-10.72-24.72
		c-0.19-0.69-0.37-1.38-0.56-2.07c-0.05-0.17-0.08-0.38,0.03-0.51c0.1-0.11,0.26-0.12,0.41-0.12c2.59-0.04,5.2-0.03,7.77-0.21
		c3.4-0.24,6.85-0.15,10.26-0.31c3.42-0.16,6.84-0.34,10.26-0.38C1099.23,386.19,1106.15,386.68,1112.74,388.73z"/>
	<path class="st3" d="M970.33,296.82c-22.66-0.7-36.45,12.89-48.22,28.2c-16.8,21.85-25.81,47.71-33.62,73.82
		c-2.01,6.72-2.6,14.09,1.55,20.79c3.03,4.9,2.34,9.6-2.29,12.91c-5.46,3.91-11.57,4.46-17.22,0.29c-4.88-3.61-6.31-9.85-3.15-13.93
		c11.59-15,11.35-34.01,18.42-50.53c11.04-25.81,22.18-51.42,45.29-68.92c33.17-25.11,61.26-19.16,88.13,9.99
		c20.2,21.91,31.95,48.84,41.17,76.5c3.65,10.95,5.73,22.17,11.95,32.29c3.04,4.95,1.34,10.64-3.45,14.88
		c-4.31,3.82-8.5,5.16-14,2.07c-5.65-3.17-9.11-8.37-6.54-13.58c7.84-15.85,0.28-29.68-4.39-43.76
		c-8.44-25.41-19.29-49.58-40.11-67.75C993.99,301.47,982.93,296.02,970.33,296.82z"/>
	<path class="st4" d="M1006.72,599.32c0,18.18,0.01,36.36,0.01,54.54c-3.67-9.97-1-20.28-1.55-30.42
		c-0.44-8.01-0.08-16.07-0.07-24.11C1005.63,598.44,1006.17,598.43,1006.72,599.32z"/>
	<path class="st5" d="M1006.72,599.32c-0.54,0-1.08,0-1.62,0.01c0.95-14.26-2.05-28.67,1.62-42.82
		C1006.72,570.78,1006.72,585.05,1006.72,599.32z"/>
</g>
</svg>
